<svg xmlns="http://www.w3.org/2000/svg" width="80" height="80" viewBox="0 0 80 80">
  <g id="Group_4380" data-name="Group 4380" transform="translate(-908 -1282)">
    <rect id="Rectangle_4700" data-name="Rectangle 4700" width="80" height="80" transform="translate(908 1282)" fill="#31007b"/>
    <path id="Icon_zocial-call" data-name="Icon zocial-call" d="M3.338,9.579a2.487,2.487,0,0,1,.633-1.351L9.036,3.164q.592-.506.886.169l4.094,7.682a1.105,1.105,0,0,1-.211,1.308L11.948,14.18a2.1,2.1,0,0,0-.591,1.308,6.443,6.443,0,0,0,1.308,3.25,27.753,27.753,0,0,0,2.575,3.378l1.308,1.349c.394.394.9.88,1.521,1.456A25.48,25.48,0,0,0,21.128,27.2a6.846,6.846,0,0,0,3.355,1.414,1.837,1.837,0,0,0,1.351-.549l2.2-2.195A.927.927,0,0,1,29.3,25.7l7.387,4.347a.617.617,0,0,1,.338.443.539.539,0,0,1-.169.485l-5.065,5.065a2.48,2.48,0,0,1-1.349.632,10.211,10.211,0,0,1-4.665-.57,21.106,21.106,0,0,1-4.81-2.3q-2.216-1.434-4.115-2.911t-3.039-2.532l-1.1-1.056q-.421-.421-1.118-1.161t-2.43-2.911a42.388,42.388,0,0,1-3-4.242,24.744,24.744,0,0,1-2.195-4.706A10.011,10.011,0,0,1,3.338,9.579Z" transform="translate(927.732 1302.053)" fill="#fff"/>
  </g>
</svg>
